<svg xmlns="http://www.w3.org/2000/svg" width="18" height="15" viewBox="0 0 18 15" fill="none">
  <path d="M12.6071 0.472534C14.0902 0.472534 15.5471 0.863001 16.8315 1.60453C17.0929 1.75546 17.2539 2.03454 17.2539 2.33637V13.3197C17.2538 13.6215 17.0928 13.9007 16.8315 14.0516C16.5702 14.2023 16.2479 14.2023 15.9866 14.0516C14.9591 13.4583 13.7936 13.1456 12.6071 13.1456C11.4207 13.1456 10.2551 13.4583 9.22761 14.0516C8.9663 14.2023 8.64406 14.2023 8.38274 14.0516C7.35524 13.4583 6.1897 13.1456 5.00325 13.1456C3.8168 13.1456 2.65125 13.4583 1.62375 14.0516C1.36244 14.2023 1.0402 14.2023 0.778882 14.0516C0.517546 13.9007 0.35653 13.6215 0.356445 13.3197V2.33637C0.356445 2.03454 0.517498 1.75546 0.778882 1.60453C2.06325 0.863001 3.52019 0.472534 5.00325 0.472534C6.32605 0.472534 7.62786 0.783511 8.80518 1.37681C9.98249 0.783511 11.2843 0.472534 12.6071 0.472534ZM5.00325 2.16228C3.97656 2.16228 2.96566 2.39641 2.04619 2.84379V11.9897C2.98847 11.6377 3.98985 11.4559 5.00325 11.4559C6.01664 11.4559 7.01803 11.6377 7.9603 11.9897V2.84379C7.04083 2.39641 6.02993 2.16228 5.00325 2.16228ZM12.6071 2.16228C11.5804 2.16228 10.5695 2.39641 9.65005 2.84379V11.9897C10.5923 11.6377 11.5937 11.4559 12.6071 11.4559C13.6205 11.4559 14.6219 11.6377 15.5642 11.9897V2.84379C14.6447 2.39641 13.6338 2.16228 12.6071 2.16228Z" fill="black"/>
  <path d="M12.6071 0.472534C14.0902 0.472534 15.5471 0.863001 16.8315 1.60453C17.0929 1.75546 17.2539 2.03454 17.2539 2.33637V13.3197C17.2538 13.6215 17.0928 13.9007 16.8315 14.0516C16.5702 14.2023 16.2479 14.2023 15.9866 14.0516C14.9591 13.4583 13.7936 13.1456 12.6071 13.1456C11.4207 13.1456 10.2551 13.4583 9.22761 14.0516C8.9663 14.2023 8.64406 14.2023 8.38274 14.0516C7.35524 13.4583 6.1897 13.1456 5.00325 13.1456C3.8168 13.1456 2.65125 13.4583 1.62375 14.0516C1.36244 14.2023 1.0402 14.2023 0.778882 14.0516C0.517546 13.9007 0.35653 13.6215 0.356445 13.3197V2.33637C0.356445 2.03454 0.517498 1.75546 0.778882 1.60453C2.06325 0.863001 3.52019 0.472534 5.00325 0.472534C6.32605 0.472534 7.62786 0.783511 8.80518 1.37681C9.98249 0.783511 11.2843 0.472534 12.6071 0.472534ZM5.00325 2.16228C3.97656 2.16228 2.96566 2.39641 2.04619 2.84379V11.9897C2.98847 11.6377 3.98985 11.4559 5.00325 11.4559C6.01664 11.4559 7.01803 11.6377 7.9603 11.9897V2.84379C7.04083 2.39641 6.02993 2.16228 5.00325 2.16228ZM12.6071 2.16228C11.5804 2.16228 10.5695 2.39641 9.65005 2.84379V11.9897C10.5923 11.6377 11.5937 11.4559 12.6071 11.4559C13.6205 11.4559 14.6219 11.6377 15.5642 11.9897V2.84379C14.6447 2.39641 13.6338 2.16228 12.6071 2.16228Z" fill="black" fill-opacity="0.24"/>
  <path d="M12.6102 0.0343744C13.0215 -0.018687 13.4406 -0.0128816 13.8591 0.0696945C13.9544 0.0886917 13.9391 0.128331 13.9773 0.1409C14.0472 0.164001 14.1753 0.141306 14.1923 0.144546C14.2975 0.163269 14.243 0.226623 14.2566 0.231932C14.4068 0.291024 14.378 0.201441 14.5293 0.226026C14.7262 0.258699 14.9708 0.336355 15.1987 0.410356C15.2786 0.436877 15.227 0.477024 15.4 0.528867C15.5221 0.563803 15.9153 0.642897 16.0555 0.777427C16.0467 0.801038 16.0149 0.817817 15.9961 0.838145C16.2733 0.842745 16.3608 0.884384 16.6759 1.07372C16.7255 1.10404 16.7947 1.09149 16.8771 1.15487C16.9373 1.20146 16.9378 1.2462 17.0035 1.30659C17.037 1.33436 17.0804 1.36667 17.1382 1.41176C17.2125 1.47236 17.2925 1.47755 17.3902 1.59993C17.5188 1.76027 17.6313 2.04879 17.6143 2.33637C17.5995 2.56522 17.5824 2.79205 17.5813 2.92515C17.5773 3.41666 17.6574 3.6841 17.6296 4.12061C17.6275 4.15423 17.5761 4.08038 17.5751 4.14201C17.5741 4.20415 17.6422 4.26887 17.6438 4.28415C17.6614 4.44915 17.5701 4.79787 17.5812 4.88965C17.6082 5.11276 17.6382 4.8929 17.6511 5.20209C17.6634 5.4965 17.5747 5.90298 17.5574 6.19482C17.5372 6.53301 17.666 6.64206 17.5315 6.89674C17.5394 7.79115 17.5442 8.68913 17.5511 9.58456C17.5243 9.58201 17.4974 9.57905 17.4706 9.576C17.4892 9.6468 17.5078 9.71762 17.5261 9.78842C17.5061 9.77773 17.4862 9.76758 17.4664 9.75688C17.5434 10.0894 17.5832 10.3858 17.562 10.7744C17.5616 10.782 17.5081 10.762 17.5068 10.7683C17.4967 10.8559 17.5378 10.9538 17.5281 11.0307C17.5049 11.2167 17.3884 11.5325 17.5309 11.3934C17.5015 11.8269 17.5497 12.3362 17.5221 12.7493C17.5102 12.928 17.4257 12.9816 17.4208 13.0671C17.416 13.1526 17.4886 13.1091 17.4914 13.1394C17.4961 13.1927 17.4992 13.256 17.4991 13.3197C17.5025 13.5218 17.4086 13.7108 17.3451 13.71C17.3582 13.7631 17.3661 13.8216 17.3696 13.8803C17.3289 13.836 17.1683 14.104 16.9352 14.2312C16.8227 14.2991 16.7068 14.3373 16.6462 14.35C16.6129 14.357 16.6009 14.3189 16.577 14.3235C16.3094 14.3592 16.2267 14.4055 15.9798 14.3383C15.902 14.3098 16.0264 14.3067 15.8751 14.2449C15.8664 14.2412 15.8566 14.2375 15.8455 14.2335C15.8312 14.2289 15.8079 14.2848 15.6319 14.1899C15.3514 14.0338 14.7788 13.8209 14.4203 13.6911C14.3908 13.6802 14.502 13.6409 14.3591 13.6168C14.3073 13.6085 14.3187 13.661 14.1973 13.63C13.7283 13.5121 13.2136 13.3862 12.7143 13.4249C12.7329 13.3708 12.9139 13.3124 12.644 13.3425C12.601 13.348 12.6329 13.3969 12.6137 13.3987C12.6115 13.3989 12.6093 13.3991 12.6071 13.3992C12.4554 13.412 12.3212 13.3826 12.1571 13.4122C12.108 13.4214 12.0988 13.4605 12.0385 13.4748C11.9499 13.4965 11.9041 13.4462 11.8021 13.4821C11.6428 13.54 11.6289 13.5936 11.4099 13.53C10.6904 13.6693 10.0025 13.9385 9.37136 14.3005C9.02868 14.5011 8.57984 14.4964 8.24451 14.2911C8.12187 14.2163 7.99719 14.1447 7.87055 14.0762C7.55684 13.9549 7.26015 13.8701 6.92796 13.7767C6.83015 13.7499 6.83102 13.6768 6.66709 13.6561C6.62978 13.65 6.36223 13.6625 6.35352 13.5188C6.27937 13.5156 6.23398 13.5072 6.17087 13.5032C6.21399 13.5319 6.25797 13.5617 6.29804 13.5911C6.04482 13.5168 5.82365 13.5356 5.59283 13.5373C5.42249 13.5398 5.54739 13.4899 5.44263 13.4881C5.33749 13.4872 5.29073 13.498 5.1611 13.4224C5.10548 13.4649 5.06124 13.4688 5.00325 13.4629C4.95132 13.4577 4.88842 13.4445 4.79838 13.4463C4.77777 13.4466 4.66131 13.4831 4.56292 13.4837C4.49212 13.4842 4.46675 13.4338 4.35462 13.4528C4.33559 13.4549 4.10656 13.5468 4.03377 13.5652C3.91959 13.5913 3.72347 13.5618 3.70046 13.5661C3.37082 13.6246 3.26817 13.7242 3.00925 13.6919C2.98239 13.7674 2.80901 13.865 2.65974 13.9175C2.47164 13.9785 2.04672 14.0361 2.06178 14.1871C1.89164 14.2251 1.86612 14.2493 1.77374 14.3113C1.72382 14.3433 1.65781 14.3815 1.55549 14.4153C1.3647 14.4901 0.935752 14.4914 0.640582 14.2912C0.417279 14.1533 0.285243 13.9499 0.228027 13.8475C0.10352 13.5983 0.0902745 13.7461 0.0421586 13.6376C-0.0185983 13.4489 0.0588544 13.5418 0.0420311 13.4129C0.0393081 13.3816 0.0378197 13.3506 0.0374782 13.3198C0.0339118 13.0797 0.0228872 12.8649 0.000196487 12.631C0.0401088 12.6172 0.0802217 12.6025 0.120134 12.5882C0.106833 12.575 0.0935167 12.5618 0.0802158 12.5486C0.0806191 12.4935 0.0797998 12.4319 0.0810093 12.381C-0.0941997 12.8108 0.0939685 11.9658 0.0984048 11.7122C0.102034 11.4982 0.0189373 11.1421 0.000989944 10.9073C-0.00342476 10.8503 0.0397034 10.8895 0.0387107 10.8778C0.0264097 10.7403 -0.00304317 10.7194 0.000989944 10.5345C0.00321046 10.4367 0.0572186 10.3369 0.0582426 10.2416C0.065502 9.5423 0.0112356 8.86737 0.00538462 8.17262C0.00437644 8.05446 0.0703074 7.95252 0.0717317 7.8532C0.0737478 7.71112 0.0197658 7.62145 0.0189348 7.48805C0.0181282 7.35511 0.0826415 7.1635 0.0727693 7.07334C0.0630898 6.98318 0.000573218 7.13746 0.0177141 6.97242C0.0255912 6.89662 0.0721464 7.03051 0.0735628 6.93683C0.0779991 6.64447 0.0203426 6.2319 0.0761874 5.92068C0.0622772 5.93443 0.0497584 5.9532 0.0364524 5.97001C0.0418984 5.63842 0.0753762 5.34547 0.0802158 5.00318C0.0820149 4.88348 0.0411434 4.66761 0.0413353 4.54996C0.041537 4.43232 0.0858845 4.3788 0.087113 4.2846C0.087718 4.24589 0.0479752 4.26102 0.0487818 4.23504C0.0592771 3.91014 0.130022 3.73185 0.121965 3.39166C0.113718 3.04252 0.105786 2.69033 0.0980549 2.33637C0.0883426 1.95131 0.300073 1.56445 0.640218 1.36439C1.18757 1.03318 1.77492 0.761515 2.38161 0.55789C2.43162 0.541177 2.4505 0.481125 2.52294 0.451842C2.63462 0.407072 2.65272 0.450227 2.6684 0.44743C2.77122 0.430001 2.71917 0.399609 2.85475 0.364975C3.15349 0.286935 3.64832 0.233624 3.95119 0.196831C4.32055 0.148559 4.66107 0.116777 5.00325 0.102021C5.30823 0.0892226 5.61463 0.0902615 5.942 0.115391C5.99206 0.11924 5.95169 0.176242 6.03742 0.187005C6.63853 0.276114 6.78139 0.234348 7.51143 0.45421C7.89208 0.574487 8.43857 0.787626 8.96107 1.06746H8.64928C9.13393 0.834802 9.64765 0.650964 10.0517 0.533298C10.0517 0.533434 10.0517 0.533571 10.0518 0.533707C10.2852 0.342997 10.6527 0.279994 10.9622 0.309166C10.1829 0.594131 9.45379 0.888817 8.74376 1.25494H8.86659C8.07715 0.867804 7.22597 0.552529 6.28533 0.415724C5.8661 0.355012 5.43518 0.334132 5.00325 0.351108C3.51046 0.406309 2.0493 0.925914 0.796258 1.63463C0.779652 1.64394 0.763401 1.65379 0.747499 1.66418C0.61058 1.75943 0.512718 1.77786 0.444565 1.91823C0.434745 1.94138 0.508002 1.90913 0.477841 1.97767C0.43046 2.09149 0.407435 2.21425 0.410981 2.33637C0.436397 3.29027 0.351996 4.28401 0.379663 5.20795C0.388132 5.49115 0.443593 5.53556 0.457912 5.78462C0.431705 5.74083 0.404301 5.7122 0.377893 5.67401C0.29602 6.81093 0.332519 7.94946 0.320823 9.10115C0.320206 9.15309 0.265953 9.15973 0.263937 9.21423C0.259711 9.32321 0.319401 9.4276 0.321434 9.52284C0.324055 9.64712 0.28089 9.66863 0.283713 9.78324C0.285157 9.83917 0.326641 9.82245 0.319603 9.94408C0.318998 9.95426 0.275475 9.96092 0.281088 10.0418C0.296614 10.2634 0.333124 10.7162 0.344017 10.8996C0.357929 11.1339 0.292368 11.3219 0.288108 11.4105C0.276615 11.6499 0.34375 11.6449 0.343773 11.8475C0.343912 12.3436 0.33497 12.8321 0.3232 13.3197C0.313678 13.6268 0.479178 13.9371 0.750726 14.1003C1.01712 14.2661 1.37853 14.2783 1.66232 14.1184C1.96366 13.9521 2.27895 13.8057 2.60786 13.6789C2.69163 13.6445 2.98932 13.4619 3.15671 13.4199C3.21199 13.4035 3.50745 13.3496 3.55172 13.3433C3.73095 13.3099 3.89324 13.3283 3.99259 13.3226C4.18491 13.3112 4.3918 13.22 4.49758 13.2054C4.63998 13.1841 4.87025 13.1792 5.00325 13.1829C5.04243 13.1837 5.07319 13.1848 5.09093 13.1855C5.2794 13.1937 5.21393 13.2796 5.34842 13.2652C5.38828 13.2615 5.35026 13.1914 5.49083 13.201C5.60862 13.2101 5.65124 13.2652 5.72947 13.2827C5.80732 13.2999 5.96333 13.2424 6.01314 13.2523C6.27119 13.3045 6.37466 13.3766 6.64854 13.4471C6.88249 13.4828 7.911 13.8469 7.99364 13.8914C8.39631 14.0038 7.76973 13.7272 7.73255 13.716C7.54774 13.619 7.58623 13.6007 7.37074 13.5823C7.25705 13.3329 6.5515 13.4285 6.43729 13.1882C6.23732 13.2955 6.11235 13.1983 5.9344 13.1437C5.68902 13.0713 5.86914 13.1792 5.68728 13.1597C5.61621 13.1518 5.41174 13.0691 5.30154 13.0745C5.19267 13.0794 5.14562 13.128 5.00325 13.131C5.00224 13.131 5.00122 13.1311 5.0002 13.1311C4.74141 13.1369 4.53381 13.1256 4.30882 13.0867C4.27149 13.1177 4.23734 13.1487 4.20152 13.1802C4.04909 13.1691 3.89477 13.1635 3.74009 13.1632C3.76832 13.1819 3.79639 13.201 3.82417 13.22C3.78145 13.231 3.73868 13.2423 3.69621 13.254C3.546 13.2474 3.40157 13.2468 3.24479 13.2502C2.88435 13.4927 2.96908 13.3483 2.74361 13.404C2.51975 13.4639 2.42542 13.5879 2.26461 13.6582C2.04787 13.7554 1.95433 13.8122 1.74099 13.9205C1.69533 13.944 1.63358 13.9658 1.58535 13.985C1.51203 14.0106 1.46607 14.0291 1.60429 14.0447C1.3897 14.1798 1.03532 14.2123 0.776518 14.0557C0.606288 13.9588 0.490381 13.7989 0.449126 13.6552C0.420422 13.5491 0.510834 13.6676 0.508242 13.6472C0.492887 13.5614 0.412617 13.5074 0.409449 13.4104C0.408912 13.3837 0.410246 13.3528 0.414346 13.3197C0.434286 13.147 0.468923 12.9075 0.478298 12.7997C0.494633 12.6128 0.414748 12.3189 0.4089 12.2888C0.37645 12.1208 0.442774 12.0759 0.438197 12.0219C0.41158 11.7148 0.383725 11.647 0.523649 11.5502C0.463152 11.4707 0.361356 11.1376 0.463161 11.0571C0.371221 11.055 0.38672 10.7785 0.363732 10.6084C0.390351 10.5768 0.416809 10.5447 0.44363 10.5131C0.279084 10.1581 0.398609 9.4511 0.418177 8.98401C0.41858 8.97229 0.34967 8.95136 0.365197 8.88107C0.366471 8.87661 0.397438 8.88385 0.401453 8.83669C0.414366 8.68133 0.49172 8.08855 0.492398 8.02034C0.49502 7.76922 0.443586 7.72533 0.438747 7.57252C0.432295 7.37135 0.47871 7.34227 0.472073 7.15083C0.469049 7.0612 0.407956 6.97965 0.41659 6.83862C0.421629 6.75512 0.469608 6.74685 0.473477 6.68071C0.487391 6.44538 0.457113 6.27255 0.51962 6.06372C0.367001 6.00921 0.479493 5.90941 0.490994 5.80602C0.537978 5.38631 0.473485 4.86323 0.487393 4.5031C0.516861 3.74641 0.569173 3.04743 0.606664 2.33637C0.620968 2.13057 0.745478 1.94391 0.922017 1.85242C0.968866 1.82703 1.016 1.80187 1.06355 1.77687C1.21602 1.69764 1.21757 1.61023 1.3831 1.53355C1.4578 1.49958 1.55727 1.51331 1.67873 1.45992C1.77639 1.41707 1.90679 1.33141 2.03186 1.28317C2.06507 1.2703 2.08666 1.31767 2.13542 1.29967C2.50553 1.16385 2.8649 1.0186 3.25213 0.907722C3.39589 0.866735 3.49932 0.918368 3.45202 0.805043C3.51381 0.823203 3.57288 0.838618 3.63026 0.858299C3.82005 0.749998 3.99777 0.803601 4.27027 0.758891C4.29905 0.753465 4.50319 0.654256 4.62551 0.709336C4.632 0.666252 4.61179 0.630854 4.61344 0.592029C4.73205 0.569637 4.91619 0.615592 4.99595 0.621003C4.99841 0.621155 5.00084 0.621251 5.00325 0.621295C5.07907 0.622696 5.13086 0.571463 5.15445 0.571343C5.2467 0.571821 5.22313 0.644581 5.23014 0.645903C5.65246 0.732352 5.60548 0.69523 5.87465 0.609965C5.9437 0.586444 6.36788 0.726221 6.46997 0.659807C6.46773 0.695231 6.43813 0.721517 6.42548 0.753492C6.55344 0.785001 6.68137 0.819959 6.80773 0.857563C6.78792 0.818399 6.76222 0.778084 6.74414 0.7394C7.00273 0.824813 7.24098 0.806076 7.45514 0.873808C7.57696 0.913082 7.53898 0.980027 7.61487 0.987519C7.62977 0.989038 7.62208 0.933188 7.66469 0.943076C8.01221 1.02716 8.1397 1.13454 8.45904 1.28738C8.56132 1.33742 8.67375 1.34398 8.79509 1.39682L8.80475 1.40189L8.81526 1.39682C8.86769 1.36665 8.92888 1.34095 9.00491 1.3259C9.02772 1.32077 9.27143 1.29789 9.36016 1.1352C9.41706 1.15146 9.46193 1.15415 9.50527 1.17026C9.71487 0.903197 9.70204 1.08568 10.0858 1.00105C10.2831 0.952303 10.9373 0.758171 11.1549 0.708614C11.283 0.674869 11.2702 0.608628 11.2932 0.602032C11.4315 0.564838 11.441 0.630458 11.5691 0.602937C11.6971 0.575754 11.8556 0.484778 11.992 0.48191C12.096 0.480104 12.0197 0.566943 12.1702 0.529715C12.2015 0.522065 12.1074 0.456328 12.2703 0.476471C12.2965 0.478695 12.5553 0.548318 12.6071 0.565761C12.4718 0.607139 12.0882 0.679233 11.9463 0.710932C11.1213 0.877386 10.0422 1.17913 8.99786 1.75917L8.79706 1.85613L8.61249 1.75917C7.51303 1.24892 6.21515 0.959821 5.00325 0.971069C3.86326 0.972813 2.8175 1.22669 2.04829 1.52397C1.82611 1.6095 1.65421 1.60973 1.50934 1.67219C1.36537 1.7356 1.51338 1.73581 1.38422 1.79444C1.25564 1.85363 1.14238 1.86207 1.02412 1.92445C1.00867 1.93263 0.993246 1.94085 0.977837 1.94913C0.837801 2.01832 0.735817 2.17047 0.72883 2.33637C0.711094 2.96947 0.695297 3.60252 0.6868 4.22896C0.683574 4.47193 0.737034 4.66611 0.737034 4.88717C0.737002 4.9732 0.668068 4.97586 0.668673 5.03697C0.674123 5.69555 0.740461 6.30479 0.732395 6.95981C0.728958 7.23178 0.670885 7.52565 0.665438 7.79508C0.6608 8.01712 0.700507 8.24734 0.701327 8.44699C0.701932 8.55536 0.64943 8.61253 0.645295 8.65175C0.631583 8.78826 0.695712 8.74055 0.695712 8.81033C0.695495 9.00283 0.618069 9.09858 0.624116 9.27888C0.626535 9.34965 0.675875 9.34055 0.683566 9.44332C0.693242 9.57368 0.647726 9.52546 0.646089 9.61857C0.645887 9.62418 0.681167 9.60591 0.682589 9.65529C0.691865 9.97314 0.719678 10.37 0.717258 10.6766C0.712417 11.3108 0.644446 11.9368 0.631135 12.5276C0.627908 12.6768 0.673901 12.6372 0.676119 12.6846C0.686591 12.9128 0.631578 12.9943 0.651338 13.2331C0.652532 13.2478 0.661939 13.2788 0.672534 13.3197C0.690516 13.3645 0.71862 13.4177 0.72667 13.4742C0.732644 13.5223 0.724086 13.593 0.74383 13.6372C0.764044 13.6809 0.813856 13.65 0.848789 13.6851C0.899796 13.7313 0.888887 13.7497 0.932039 13.7863C0.946727 13.7979 0.968115 13.8109 1.00153 13.8223C1.05745 13.8474 1.2479 13.8255 1.36686 13.7775C1.39333 13.7689 1.42017 13.7584 1.44707 13.7454C1.76704 13.5765 2.1613 13.4295 2.5356 13.2914C2.68272 13.237 2.85576 13.1135 3.09352 13.0466C3.38239 12.96 3.93022 12.868 4.23683 12.8406C4.3937 12.8246 4.41026 12.8878 4.42894 12.8886C4.54906 12.8968 4.49605 12.8303 4.57663 12.8279C4.68757 12.8251 4.79217 12.8732 4.8916 12.8751C4.95505 12.8763 4.96491 12.8247 4.97881 12.8242C4.98697 12.8239 4.99511 12.8236 5.00325 12.8233C5.50702 12.8085 5.95569 12.8594 6.44934 12.9552C7.18716 13.1003 7.9057 13.3619 8.5675 13.7315C8.71312 13.8119 8.89925 13.8057 9.03628 13.72C10.1069 13.0798 11.3572 12.7296 12.6071 12.7323C13.06 12.7326 13.5122 12.778 13.9541 12.8677C14.1811 12.9155 14.1748 12.9818 14.3729 13.0204C14.569 13.0601 14.8026 12.9842 14.9107 13.1862C14.9259 13.1582 14.9327 13.1368 14.9472 13.1115C15.3302 13.2903 15.7315 13.4197 16.0966 13.6159C16.1331 13.6355 16.1689 13.6552 16.2039 13.6752C16.306 13.7319 16.4212 13.7471 16.5303 13.7175C16.5754 13.7047 16.603 13.7005 16.6258 13.6951C16.6573 13.687 16.6828 13.674 16.6949 13.6027C16.7756 13.5356 16.8285 13.4304 16.8339 13.3196C16.8553 12.5242 16.8612 11.7261 16.9195 10.94C16.8024 10.7046 16.8762 10.4791 16.8935 10.1536C16.8957 10.1134 16.853 10.1565 16.8566 10.0373C16.8611 9.88767 16.9264 9.81021 16.9228 9.5582C16.9217 9.49148 16.8493 8.99725 16.8864 8.81439C16.9235 8.63153 16.9453 8.36665 16.9808 8.17667C16.9528 8.20367 16.926 8.23785 16.8983 8.2679C16.8935 8.17316 16.8888 8.07791 16.884 7.98317C16.9177 7.96942 16.9514 7.95565 16.9853 7.9424C16.9532 7.88739 16.9215 7.83235 16.8891 7.77683C17.0621 7.65715 17.0056 7.77986 16.9619 7.5135C16.9401 7.38005 16.9703 7.27411 16.9528 7.13709C16.9463 7.08772 16.8954 7.05614 16.8889 7.00171C16.8732 6.86828 16.9433 6.94605 16.9429 6.86362C16.9423 6.78059 16.8653 6.6614 16.8996 6.51266C17.0369 6.66794 16.9921 6.21914 16.8854 6.19775C16.8852 6.14432 16.8896 6.09954 16.8866 6.04052C17.156 6.09502 16.9648 5.81524 16.9279 5.7042C16.8911 5.59323 16.9635 5.59772 16.9607 5.57175C16.9528 5.49692 16.9227 5.55141 16.9217 5.49899C16.9157 5.1516 16.9599 4.82451 16.9639 4.4817C16.9645 4.43239 16.9236 4.47613 16.9276 4.41863C16.9316 4.36107 16.9723 4.30592 16.9695 4.22085C16.9688 4.19803 16.9329 4.19086 16.9328 4.1553C16.9342 3.54023 16.9552 2.95079 16.9652 2.33637C16.9674 2.25066 16.9489 2.16352 16.9099 2.08435C16.8881 2.04261 16.8184 2.04602 16.768 1.98903C16.7419 1.96042 16.7142 1.91746 16.6742 1.87696C16.6082 1.82107 16.5376 1.76377 16.4677 1.72376C16.4308 1.7027 16.3958 1.74432 16.3471 1.71733C16.181 1.62592 16.0516 1.51592 15.8723 1.42977C15.5688 1.28433 15.228 1.19478 14.9105 1.06911C14.8501 1.04548 14.8724 1.00546 14.7852 0.968349C14.6341 0.905352 14.6766 0.984185 14.6429 0.984224C14.5329 0.985213 14.5204 0.893766 14.4142 0.892247C14.398 0.892116 14.4088 0.946832 14.3948 0.944513C14.1799 0.906981 14.1902 0.786832 13.948 0.810154C13.7527 0.708931 14.1015 0.741515 14.1442 0.714098C14.2486 0.643528 14.0352 0.496473 13.8989 0.442794C13.7824 0.396204 13.7754 0.451594 13.7275 0.445094C13.4734 0.40976 13.0928 0.391915 12.8987 0.360819C12.7808 0.341216 12.9951 0.325426 12.9353 0.305218C12.8756 0.284856 12.8356 0.32522 12.7746 0.278619C12.7142 0.23177 12.586 0.0980014 12.6102 0.0343744ZM12.9315 13.2945C13.323 13.0765 14.3677 13.277 14.8756 13.5026C15.3081 13.6732 15.5812 14.0065 15.604 13.7449C15.1514 13.5261 14.7605 13.4072 14.2494 13.27C14.1967 13.2541 13.8797 13.1621 13.7665 13.1409C13.7032 13.128 13.7076 13.0878 13.62 13.0749C13.6007 13.0721 13.4882 13.1094 13.4502 13.1035C13.3207 13.0794 12.9301 12.9708 12.873 12.9736C12.7182 12.9754 12.7761 13.04 12.7098 13.0499C12.6699 13.0561 12.6365 13.0584 12.6071 13.0582C12.4736 13.0577 12.4227 12.9993 12.243 13.033C12.2034 13.0406 12.0794 13.1291 11.9183 13.1348C11.8527 13.1368 11.7362 13.1084 11.6862 13.1175C11.4135 13.1649 11.125 13.2807 10.8816 13.3357C10.6816 13.3819 10.7175 13.3075 10.6098 13.3304C10.5018 13.3544 10.3997 13.466 10.3315 13.4949C10.2219 13.5404 10.0722 13.555 10.0379 13.5698C9.7366 13.6981 9.46279 13.8477 9.20504 14.0125C8.97106 14.1655 8.64858 14.187 8.38609 14.0458C8.31533 14.0081 8.2437 13.9712 8.17097 13.9349C8.23987 13.977 8.30795 14.0203 8.3752 14.0646C8.62609 14.2328 8.97702 14.2563 9.26144 14.1102C9.34726 14.0674 9.43376 14.0268 9.52102 13.9881C9.72666 13.8102 9.6375 13.9238 9.80217 13.8677C9.93293 13.8256 9.91872 13.7101 10.0927 13.6523C10.0926 13.6523 10.0924 13.6524 10.0923 13.6524C10.1825 13.6228 10.3973 13.6226 10.576 13.5325C10.5824 13.5294 10.5813 13.468 10.7249 13.4237C11.0458 13.3221 11.5505 13.1901 11.9318 13.1679C12.0435 13.1609 12.0261 13.2226 12.157 13.2206C12.2521 13.2197 12.3605 13.1581 12.5113 13.1683C12.5464 13.1707 12.578 13.1763 12.6071 13.1828C12.7348 13.2115 12.8103 13.2572 12.9204 13.1534C12.9289 13.2015 12.9213 13.2476 12.9315 13.2945ZM17.2788 7.85883C17.2841 7.83229 17.4329 7.4768 17.274 7.58221C17.2051 8.05999 17.2393 8.57655 17.2006 9.0793C17.3577 8.90764 17.2958 8.61723 17.2843 8.26475C17.2843 8.2646 17.2843 8.26445 17.2843 8.2643C17.2837 8.24765 17.3248 8.31722 17.3174 8.22263C17.3137 8.17678 17.2508 8.00094 17.2788 7.85883ZM5.00184 2.60044C4.81309 2.65378 4.62994 2.68469 4.43629 2.67896C4.39217 2.67777 4.39227 2.63652 4.37352 2.63167C4.33889 2.62272 4.28809 2.67309 4.28043 2.67402C4.23233 2.68025 4.24246 2.60659 4.23561 2.6046C4.15879 2.58474 4.19016 2.66337 4.12223 2.6807C4.03377 2.70349 3.91654 2.70771 3.80803 2.72465C3.76995 2.7305 3.77616 2.67305 3.69497 2.69459C3.63674 2.70949 3.47569 2.81116 3.37826 2.76862C3.37133 2.74438 3.37452 2.71476 3.37231 2.68845C3.28182 2.8214 3.24129 2.82718 3.07066 2.85383C3.04365 2.85823 3.03282 2.90702 2.98297 2.90694C2.93311 2.90706 2.90937 2.8444 2.81876 2.87772C2.78671 2.88984 2.7835 2.94092 2.73565 2.96123C2.59955 3.01753 2.31711 3.07712 2.20585 3.13028C2.20027 3.13286 2.19479 3.13546 2.18939 3.13809L2.37348 2.84379C2.37361 3.08522 2.44897 3.2218 2.42185 3.44119C2.41983 3.45853 2.36842 3.42045 2.36741 3.45223C2.3664 3.48428 2.43452 3.51765 2.43613 3.52554C2.45367 3.61063 2.36241 3.79048 2.37345 3.83782C2.40047 3.95288 2.43049 3.83949 2.4434 3.99895C2.45568 4.15079 2.36698 4.36043 2.34964 4.51094C2.32949 4.68536 2.45832 4.7416 2.32382 4.87295C2.33169 5.33423 2.3365 5.79735 2.34336 6.25916C2.31654 6.25785 2.28972 6.25632 2.26291 6.25475C2.28146 6.29126 2.30004 6.32779 2.31839 6.3643C2.29843 6.35879 2.27846 6.35355 2.2587 6.34804C2.33571 6.51955 2.37544 6.67241 2.35428 6.87281C2.35388 6.87673 2.30042 6.86642 2.29904 6.86967C2.28896 6.91485 2.33009 6.96535 2.32041 7.00502C2.29722 7.1009 2.18065 7.26377 2.32321 7.19206C2.29378 7.4156 2.34198 7.67828 2.31436 7.89132C2.30247 7.98351 2.21798 8.01113 2.2131 8.05525C2.20827 8.09933 2.28087 8.07689 2.28366 8.09254C2.29979 8.18658 2.2968 8.34135 2.21555 8.35766C2.248 8.37657 2.28085 8.39657 2.31351 8.41574C2.22342 8.40451 2.26066 8.69511 2.25845 8.77136C2.25805 8.78528 2.21856 8.78722 2.21896 8.79773C2.22402 8.91484 2.28592 8.94347 2.30649 9.04379C2.31375 9.07899 2.24415 9.02441 2.2742 9.11478C2.27684 9.12265 2.33937 9.11847 2.33896 9.22642C2.33836 9.39875 2.36316 9.72842 2.33231 9.93359C2.32989 9.95039 2.26173 9.89922 2.27762 9.97611C2.28327 10.004 2.33166 9.99061 2.33206 10.0581C2.33408 10.3198 2.27844 10.5988 2.32462 10.8657C2.26997 10.8559 2.20867 10.7609 2.24295 10.9038C2.24861 10.9266 2.29741 10.9096 2.29923 10.9198C2.31333 11.0028 2.27847 11.0748 2.29721 11.1646C2.30286 11.1911 2.34118 11.1977 2.35025 11.2308C2.36376 11.2797 2.30912 11.3013 2.33231 11.358C2.36881 11.4468 2.4206 11.4605 2.319 11.5705C2.32045 11.7104 2.32301 11.8501 2.32561 11.9897L1.9484 11.728C2.41217 11.545 2.89396 11.4012 3.38943 11.3433C3.56609 11.2806 3.73129 11.2218 3.92326 11.1867C3.97992 11.1766 3.99865 11.244 4.08654 11.2114C4.10583 11.204 4.24505 11.1161 4.27779 11.2543C4.31686 11.2389 4.34222 11.2366 4.37619 11.2266C4.34854 11.208 4.31986 11.1894 4.29292 11.1707C4.44109 11.1812 4.55758 11.1253 4.68789 11.0971C4.78373 11.0769 4.71718 11.1391 4.77593 11.1314C4.83458 11.1241 4.86174 11.11 4.93571 11.1813C4.9592 11.1468 4.97981 11.1366 5.00325 11.1366C5.03658 11.1366 5.07547 11.1573 5.13781 11.1595C5.14916 11.1599 5.21597 11.1288 5.2712 11.137C5.31087 11.1429 5.32077 11.195 5.38382 11.1896C5.39396 11.1886 5.53051 11.1313 5.57372 11.1285C5.64091 11.1234 5.74069 11.1982 5.75312 11.2002C5.93621 11.2282 6.01598 11.172 6.13256 11.2956C6.16691 11.2353 6.28176 11.2131 6.36906 11.2333C6.48052 11.2579 6.67575 11.428 6.73276 11.2988C6.84801 11.3855 6.84158 11.3448 6.99249 11.378C7.13075 11.4068 7.47436 11.556 7.58365 11.584C7.69391 11.6108 7.66466 11.5209 7.71101 11.5249C7.78708 11.5317 7.73119 11.5732 7.77956 11.5884C7.88413 11.6214 7.9793 11.648 8.07964 11.6703L7.61933 11.9897C7.61496 11.9596 7.60989 11.9292 7.60405 11.8981C7.64397 11.891 7.68408 11.8834 7.72399 11.8761C7.71069 11.8692 7.69737 11.8624 7.68407 11.8556C7.68448 11.8272 7.68366 11.7954 7.68487 11.7692C7.50966 11.9908 7.69783 11.5551 7.70226 11.4243C7.70589 11.3139 7.6228 11.1303 7.60485 11.0092C7.60043 10.9798 7.64356 11 7.64257 10.9939C7.63027 10.923 7.60081 10.9122 7.60485 10.8169C7.60707 10.7665 7.66108 10.715 7.6621 10.6659C7.66936 10.3052 7.61509 9.95709 7.60924 9.59877C7.60823 9.53783 7.67416 9.48526 7.67559 9.43403C7.67761 9.36076 7.62362 9.31452 7.62279 9.24571C7.62199 9.17715 7.6865 9.07833 7.67663 9.03183C7.66695 8.98533 7.60443 9.0649 7.62157 8.97978C7.62945 8.94069 7.676 9.00974 7.67742 8.96143C7.68186 8.81065 7.6242 8.59787 7.68005 8.43736C7.66613 8.44445 7.65362 8.45413 7.64031 8.4628C7.64576 8.29179 7.67923 8.1407 7.68407 7.96417C7.68587 7.90244 7.645 7.7911 7.64519 7.73043C7.64539 7.66975 7.68974 7.64215 7.69097 7.59357C7.69158 7.5736 7.65183 7.58141 7.65264 7.56801C7.66313 7.40044 7.73388 7.3085 7.72582 7.13305C7.69638 6.49022 7.67096 5.82736 7.64434 5.17455C7.64328 5.1483 7.59151 5.13063 7.58385 5.0923C7.57199 5.03324 7.61776 5.03035 7.61937 5.02247C7.62945 4.971 7.58709 4.99199 7.58709 4.92291C7.58709 4.77081 7.62462 4.52544 7.62139 4.37386C7.61393 4.02447 7.57358 3.73078 7.55321 3.38822C7.5516 3.36353 7.61289 3.38027 7.6137 3.33745C7.6184 3.11745 7.58848 3.02387 7.57833 2.84379L7.79318 3.18726C7.73469 3.16304 7.66711 3.13217 7.58109 3.0892C7.26742 2.924 6.63612 2.67928 6.22325 2.5992C6.22328 2.59906 6.22331 2.59892 6.22333 2.59878C6.07261 2.68484 5.9154 2.63119 5.78475 2.52912C6.52593 2.37597 7.22391 2.6391 7.89398 2.9801L7.80871 2.84379C7.80673 2.96078 7.80585 3.07912 7.80731 3.19909C7.8188 4.16161 8.02188 5.1877 7.99426 6.16309C7.99164 6.25477 7.9271 6.29161 7.94061 6.36884C7.9429 6.3819 7.99264 6.34809 7.99768 6.38824C8.06544 6.9399 7.95207 7.5281 7.98352 8.06978C7.99199 8.21583 8.04745 8.23874 8.06177 8.36719C8.03556 8.34461 8.00816 8.32984 7.98175 8.31015C7.89988 8.89649 7.93638 9.48368 7.92468 10.0777C7.92406 10.1044 7.86981 10.1079 7.86779 10.136C7.86357 10.1922 7.92326 10.246 7.92529 10.2951C7.92791 10.3592 7.88475 10.3703 7.88757 10.4294C7.88902 10.4583 7.9305 10.4497 7.92346 10.5124C7.92286 10.5176 7.87933 10.5211 7.88495 10.5628C7.90047 10.6771 7.93698 10.9106 7.94788 11.0052C7.96179 11.126 7.89622 11.223 7.89196 11.2687C7.88047 11.3921 7.94761 11.3896 7.94763 11.4941C7.94772 11.6606 7.94396 11.8255 7.93808 11.9897L7.96808 11.9689C7.44129 11.7507 6.90255 11.56 6.3114 11.4684C6.26326 11.4606 6.0767 11.5098 5.98937 11.4971C5.96011 11.4921 5.80734 11.4563 5.7841 11.4529C5.69049 11.438 5.61192 11.3871 5.5599 11.3742C5.45888 11.3489 5.3417 11.4146 5.28662 11.4199C5.20388 11.4275 5.06728 11.4204 5.00325 11.4178C4.99208 11.4173 4.98314 11.4169 4.97709 11.4166C4.87898 11.4128 4.91027 11.3253 4.83954 11.3468C4.8187 11.3534 4.84187 11.4196 4.7686 11.4215C4.70726 11.423 4.68052 11.3737 4.63789 11.3663C4.59507 11.3591 4.52201 11.441 4.49601 11.4407C4.35921 11.4383 4.29451 11.3921 4.14497 11.4041C4.01969 11.4092 3.45709 11.5311 3.41537 11.5625C3.22281 11.6833 3.56204 11.5802 3.58247 11.5811C3.69115 11.5791 3.67986 11.6128 3.77696 11.5375C3.89529 11.7056 4.19362 11.3812 4.29947 11.5945C4.37476 11.4413 4.45588 11.5096 4.5494 11.534C4.67907 11.5682 4.57762 11.4876 4.67129 11.483C4.70849 11.4812 4.81704 11.5445 4.87178 11.5346C4.92124 11.5255 4.9447 11.4831 5.00325 11.4727C5.00978 11.4715 5.01676 11.4707 5.02424 11.4705C5.15718 11.4656 5.26437 11.4924 5.37225 11.5582C5.39368 11.5321 5.41396 11.506 5.4355 11.4801C5.51102 11.513 5.58603 11.5468 5.65984 11.5816C5.64952 11.5571 5.63911 11.5324 5.62858 11.508C5.65129 11.5062 5.67407 11.5048 5.69681 11.5034C5.76857 11.5449 5.8363 11.5844 5.90799 11.6291C6.12977 11.5173 6.05674 11.6282 6.16773 11.661C6.27864 11.6947 6.3567 11.6274 6.44519 11.6422C6.56388 11.6626 6.62021 11.6634 6.73812 11.6937C6.80658 11.7113 6.90609 11.8123 6.83686 11.6729C7.0544 11.7103 7.35784 11.7578 7.53179 11.8648C7.58304 11.896 7.49757 11.9089 7.50567 11.9165C7.54576 11.9525 7.60408 11.9065 7.64978 11.9309C7.72416 11.9704 7.85833 12.067 7.91794 12.1031L8.07576 12.1678L8.08136 11.9897C8.08164 11.9881 8.08191 11.9866 8.08216 11.9851C8.09849 11.8887 8.01861 11.7372 8.01276 11.7217C7.98031 11.635 8.04663 11.6118 8.04205 11.584C8.01544 11.4256 7.98758 11.3906 8.12751 11.3407C8.06701 11.2997 7.96521 11.1279 8.06702 11.0864C7.97508 11.0853 7.99058 10.9427 7.96759 10.855C7.99421 10.8387 8.02067 10.8221 8.04749 10.8058C7.88294 10.6227 8.00247 10.2581 8.02203 10.0172C8.02244 10.0112 7.95353 10.0004 7.96905 9.96415C7.97033 9.96185 8.0013 9.96558 8.00531 9.94126C8.01822 9.86113 8.09558 9.55542 8.09626 9.52024C8.09888 9.39073 8.04744 9.36809 8.0426 9.28928C8.03615 9.18553 8.08257 9.17053 8.07593 9.0718C8.07291 9.02557 8.01181 8.98351 8.02045 8.91078C8.02549 8.86771 8.07347 8.86345 8.07733 8.82934C8.09125 8.70797 8.06097 8.61883 8.12348 8.51113C7.97086 8.48302 8.08335 8.43155 8.09485 8.37822C8.14184 8.16177 8.07734 7.89199 8.09125 7.70626C8.13501 7.12676 8.22913 6.6129 8.25031 6.0468C8.25374 5.95485 8.17711 5.9327 8.18195 5.83629C8.18419 5.79295 8.23968 5.74827 8.24049 5.67736C8.24128 5.62037 8.21308 5.53871 8.21326 5.46754C8.21326 5.44863 8.26529 5.44695 8.26569 5.4191C8.26871 5.20791 8.23177 5.00167 8.20637 4.78838C8.19691 4.70933 8.26585 4.66043 8.14588 4.67383C8.17532 4.64362 8.20095 4.61425 8.22999 4.58588C8.15437 4.47712 8.23317 4.3883 8.21381 4.24119C8.21151 4.22533 8.12856 4.11425 8.18842 4.05124C8.14568 4.04678 8.10939 4.05656 8.07068 4.05473C8.05435 3.99247 8.10371 3.89683 8.10877 3.85479C8.1138 3.81281 8.05828 3.7847 8.05774 3.77207C8.05633 3.72399 8.12935 3.7352 8.13056 3.73152C8.20052 3.50747 8.16162 3.53106 8.05213 3.39577C8.02451 3.36188 8.10472 3.13187 8.01825 3.08535C8.05352 3.08326 8.08457 3.09607 8.11823 3.09976C8.1273 3.03067 8.13662 2.96104 8.1457 2.89168C8.11182 2.90639 8.07791 2.92406 8.04383 2.93746C8.05056 2.90508 8.05158 2.87394 8.04917 2.84379L8.0509 2.79118L7.99918 2.76388C7.90279 2.72604 7.80031 2.73086 7.719 2.69319C7.65867 2.66527 7.69527 2.59969 7.65258 2.5994C7.64422 2.59941 7.63665 2.65105 7.61414 2.64606C7.43072 2.60628 7.37467 2.52797 7.20145 2.45745C7.11973 2.42474 7.02039 2.48888 6.91853 2.39573C6.90986 2.38708 6.81229 2.2742 6.70929 2.36855C6.69541 2.3268 6.67954 2.30276 6.66952 2.26824C6.47886 2.40072 6.56233 2.24417 6.36428 2.16149C6.26214 2.11687 5.89528 2.08955 5.77645 2.09744C5.70545 2.1009 5.69987 2.16921 5.68728 2.17061C5.61241 2.17902 5.61832 2.11319 5.54886 2.11832C5.47918 2.12359 5.3886 2.19278 5.31957 2.18275C5.26643 2.17513 5.31207 2.09462 5.23141 2.12031C5.21479 2.12601 5.25929 2.19703 5.17685 2.1673C5.1642 2.16241 5.03139 2.08502 5.00325 2.06905C5.0739 2.02446 5.28396 1.97257 5.364 1.95981C6.06008 1.83159 7.17037 1.95411 8.16975 2.41333L8.44832 2.56037L8.43902 2.84379C8.47106 3.8282 8.4622 4.81745 8.44331 5.50693C8.43987 5.63747 8.36808 5.72284 8.36183 5.80794C8.35558 5.89306 8.42135 5.82109 8.41591 5.89833C8.41026 5.97556 8.36385 6.03183 8.35981 6.10407C8.33239 6.59109 8.30336 7.08179 8.29066 7.56488C8.28743 7.69018 8.34089 7.79033 8.34089 7.90434C8.34086 7.94871 8.27193 7.95008 8.27253 7.9816C8.27798 8.32125 8.34432 8.63546 8.33625 8.97328C8.33282 9.11355 8.27474 9.26511 8.2693 9.40406C8.26466 9.51858 8.30436 9.63731 8.30518 9.74028C8.30579 9.79617 8.25329 9.82565 8.24915 9.84588C8.23544 9.91628 8.29957 9.89168 8.29957 9.92767C8.29935 10.0269 8.22193 10.0763 8.22797 10.1693C8.23039 10.2058 8.27973 10.2011 8.28742 10.2541C8.2971 10.3214 8.25158 10.2965 8.24995 10.3445C8.24974 10.3474 8.28502 10.338 8.28645 10.3634C8.29572 10.5274 8.32354 10.732 8.32112 10.8902C8.31627 11.2172 8.2483 11.5401 8.23499 11.8448C8.23177 11.9218 8.27776 11.9014 8.27998 11.9258C8.28211 11.9498 8.28152 11.9707 8.2794 11.9897L8.26465 12.4591L7.84863 12.2886C7.78463 12.256 7.75288 12.2107 7.65822 12.1946C7.63829 12.1911 7.54304 12.2259 7.47622 12.1876C7.44008 12.1669 7.4075 12.1152 7.37663 12.0961C7.34577 12.0771 7.32363 12.1315 7.28355 12.1198C7.21036 12.0988 7.24283 12.0656 7.13536 12.0436C7.09189 12.0346 6.93634 12.0512 6.82777 12.0221C6.65042 11.9738 6.43492 11.8798 6.21827 11.8467C6.14393 11.8351 6.04073 11.8813 5.92626 11.8688C5.78621 11.8526 5.52794 11.8179 5.38306 11.8113C5.30919 11.8075 5.30606 11.7447 5.29726 11.7417C5.24074 11.7223 5.26156 11.7933 5.22361 11.7895C5.17157 11.7842 5.12355 11.7315 5.07567 11.7277C5.04516 11.7252 5.0401 11.7771 5.03354 11.7774C5.02339 11.7781 5.0133 11.7788 5.00325 11.7794C4.77265 11.7944 4.56616 11.7986 4.33621 11.8227C3.59802 11.9005 2.87276 12.0925 2.18684 12.3662L1.62652 12.5557L1.64431 11.9897C1.63233 11.4132 1.62758 10.8372 1.64039 10.2641C1.64281 10.1514 1.70817 10.1472 1.69789 10.0481C1.68781 9.9491 1.54665 9.85342 1.70253 9.77199C1.67107 9.76936 1.64864 9.76962 1.62001 9.76699C1.66436 9.56235 1.61845 9.3577 1.61281 9.15753C1.60857 9.00938 1.61359 8.87801 1.61702 8.74115C1.62026 8.61985 1.67507 8.63032 1.60353 8.5253C1.6483 8.00331 1.6374 7.47572 1.71181 6.9582C1.59465 6.83683 1.66846 6.72049 1.68581 6.55262C1.688 6.5319 1.64525 6.55413 1.64888 6.49268C1.65334 6.41549 1.71866 6.37554 1.71504 6.24557C1.71403 6.21116 1.64162 5.95627 1.67873 5.86196C1.71582 5.76765 1.7376 5.63104 1.77309 5.53306C1.74506 5.54698 1.71825 5.56462 1.69063 5.58011C1.68579 5.53125 1.68112 5.48213 1.67628 5.43327C1.70996 5.42617 1.74367 5.41907 1.77754 5.41224C1.74548 5.38387 1.71382 5.35548 1.68135 5.32685C1.85435 5.26512 1.79793 5.32841 1.75417 5.19104C1.73239 5.12221 1.76262 5.06757 1.74507 4.99691C1.73862 4.97145 1.68768 4.95516 1.68117 4.92709C1.66544 4.85827 1.73556 4.89838 1.73519 4.85587C1.73458 4.81305 1.65757 4.75158 1.69185 4.67487C1.82915 4.75495 1.78436 4.52349 1.67769 4.51245C1.67749 4.4849 1.68192 4.4618 1.67891 4.43136C1.94832 4.45947 1.75713 4.31518 1.72023 4.25791C1.68338 4.20068 1.75577 4.20299 1.75295 4.1896C1.74508 4.15101 1.71502 4.17911 1.71401 4.15207C1.70796 3.97291 1.75215 3.80422 1.75618 3.62742C1.75676 3.60199 1.71585 3.62455 1.71986 3.59489C1.7239 3.56521 1.76462 3.53676 1.7618 3.49289C1.76108 3.48112 1.72515 3.47742 1.72511 3.45908C1.72599 3.25075 1.73538 3.04811 1.74455 2.84379L1.75106 2.64541L1.91421 2.57255C2.07978 2.50062 2.24865 2.4344 2.42343 2.36784C2.45788 2.35478 2.46199 2.28446 2.53042 2.2613C2.59896 2.23808 2.72077 2.2562 2.80614 2.23298C2.82885 2.22682 2.8185 2.1742 2.8489 2.16595C2.95243 2.13811 3.05275 2.1536 3.16072 2.1315C3.34297 2.09424 3.52654 2.0189 3.71831 2.01525C3.75454 2.01452 3.75691 2.05912 3.8094 2.06259C3.89988 2.06898 3.85659 2.01086 3.8729 1.99932C3.92676 1.96223 3.95808 2.04447 4.01076 2.01445C4.01886 2.00983 3.99934 1.96109 4.00696 1.95919C4.12647 1.93367 4.1468 2.05152 4.26666 1.97375C4.38654 2.03042 4.20086 2.07322 4.18665 2.11228C4.1514 2.20589 4.28498 2.29456 4.35788 2.32139C4.42104 2.34429 4.41559 2.28951 4.43987 2.28736C4.56777 2.27564 4.7592 2.25594 4.85746 2.28056C4.91676 2.29504 4.81107 2.32035 4.84162 2.33783C4.87162 2.35524 4.89021 2.31338 4.92124 2.35833C4.95255 2.40323 5.01347 2.53669 5.00184 2.60044ZM2.1871 10.7524C1.96932 10.5522 1.99207 10.0214 2.01284 9.73632C2.03018 9.49989 2.19799 9.29606 1.9548 9.34492C1.95319 9.6005 1.97757 9.80724 1.97012 10.0775C1.96931 10.1056 1.94674 10.2733 1.94271 10.3316C1.94048 10.3644 1.90031 10.3655 1.90072 10.4101C1.90092 10.4199 1.9534 10.4737 1.95199 10.4934C1.94734 10.5609 1.86678 10.7617 1.8691 10.7897C1.87595 10.8674 1.93839 10.8376 1.94973 10.8711C1.98724 10.9838 1.89346 10.9962 1.92391 11.1079C1.92936 11.1279 2.01108 11.1941 2.00039 11.2768C1.99595 11.3104 1.95376 11.3677 1.95577 11.3935C1.96667 11.5337 2.02254 11.6903 2.01327 11.8188C2.0056 11.9241 1.94251 11.8958 1.93404 11.9515C1.93222 11.9638 1.93439 11.9767 1.93891 11.9897L1.93416 12.1408L2.08374 12.0902C2.12044 12.0595 2.14922 12.0011 2.17596 11.9881C2.23094 11.9613 2.31412 11.9769 2.3316 11.9704C2.67717 11.8417 2.98386 11.7103 3.33309 11.6218C3.08811 11.6417 2.8437 11.6747 2.6003 11.715C2.48587 11.8172 2.53476 11.7386 2.44101 11.7463C2.36676 11.7529 2.38417 11.8634 2.29095 11.8818C2.29102 11.8817 2.29109 11.8817 2.29117 11.8817C2.24327 11.891 2.11719 11.8535 2.03019 11.9202C2.02908 11.9211 2.02988 11.9292 2.02786 11.9406L2.09858 11.9897C2.08119 11.9795 2.05752 11.9578 2.05624 11.9086C2.0518 11.7344 2.02234 11.4676 2.03463 11.2716C2.03826 11.2141 2.09858 11.2258 2.10605 11.1577C2.11144 11.1081 2.05567 11.0506 2.06814 10.9729C2.08407 10.8754 2.18001 10.8287 2.04672 10.7617C2.09431 10.7562 2.14072 10.759 2.1871 10.7524ZM2.07113 5.36914C2.0764 5.35545 2.22519 5.17211 2.06631 5.22647C1.99734 5.47289 2.0316 5.73929 1.99288 5.99858C2.14997 5.91005 2.08806 5.76028 2.07656 5.57849C2.07656 5.57841 2.07656 5.57833 2.07656 5.57825C2.07603 5.56967 2.11708 5.60555 2.10965 5.55676C2.10602 5.53312 2.0431 5.44243 2.07113 5.36914ZM12.6057 2.60044C12.4169 2.65378 12.2338 2.68469 12.0401 2.67896C11.996 2.67777 11.9961 2.63652 11.9774 2.63167C11.9428 2.62272 11.8919 2.67309 11.8843 2.67402C11.8362 2.68025 11.8463 2.60659 11.8395 2.6046C11.7626 2.58474 11.794 2.66337 11.7261 2.6807C11.6376 2.70349 11.5204 2.70771 11.4119 2.72465C11.3738 2.7305 11.38 2.67305 11.2988 2.69459C11.2406 2.70949 11.0795 2.81116 10.9821 2.76862C10.9752 2.74438 10.9784 2.71476 10.9762 2.68845C10.8857 2.8214 10.8451 2.82718 10.6745 2.85383C10.6475 2.85823 10.6367 2.90702 10.5868 2.90694C10.537 2.90706 10.5132 2.8444 10.4226 2.87772C10.3906 2.88984 10.3874 2.94092 10.3395 2.96123C10.2034 3.01753 9.92097 3.07712 9.80971 3.13028C9.80413 3.13286 9.79865 3.13546 9.79325 3.13809L9.97734 2.84379C9.97747 3.08522 10.0528 3.2218 10.0257 3.44119C10.0237 3.45853 9.97227 3.42045 9.97126 3.45223C9.97025 3.48428 10.0384 3.51765 10.04 3.52554C10.0575 3.61063 9.96626 3.79048 9.97731 3.83782C10.0043 3.95288 10.0343 3.83949 10.0473 3.99895C10.0595 4.15079 9.97084 4.36043 9.9535 4.51094C9.93335 4.68536 10.0622 4.7416 9.92768 4.87295C9.93555 5.33423 9.94036 5.79735 9.94721 6.25916C9.9204 6.25785 9.89358 6.25632 9.86677 6.25475C9.88532 6.29126 9.9039 6.32779 9.92225 6.3643C9.90229 6.35879 9.88231 6.35355 9.86256 6.34804C9.93957 6.51955 9.9793 6.67241 9.95814 6.87281C9.95774 6.87673 9.90428 6.86642 9.9029 6.86967C9.89282 6.91485 9.93394 6.96535 9.92426 7.00502C9.90107 7.1009 9.7845 7.26377 9.92707 7.19206C9.89764 7.4156 9.94584 7.67828 9.91822 7.89132C9.90633 7.98351 9.82184 8.01113 9.81696 8.05525C9.81213 8.09933 9.88473 8.07689 9.88752 8.09254C9.90365 8.18658 9.90066 8.34135 9.8194 8.35766C9.85186 8.37656 9.88471 8.39657 9.91737 8.41574C9.82728 8.40451 9.86451 8.69511 9.86231 8.77136C9.86191 8.78528 9.82242 8.78722 9.82282 8.79773C9.82788 8.91484 9.88978 8.94347 9.91035 9.04379C9.91761 9.07899 9.84801 9.02441 9.87806 9.11478C9.8807 9.12265 9.94322 9.11847 9.94282 9.22642C9.94222 9.39875 9.96701 9.72842 9.93617 9.93359C9.93375 9.95039 9.86559 9.89922 9.88148 9.97611C9.88712 10.004 9.93552 9.99061 9.93592 10.0581C9.93794 10.3198 9.8823 10.5988 9.92848 10.8657C9.87383 10.8559 9.81253 10.7609 9.84681 10.9038C9.85247 10.9266 9.90127 10.9096 9.90308 10.9198C9.91719 11.0028 9.88233 11.0748 9.90107 11.1646C9.90672 11.1911 9.94504 11.1977 9.95411 11.2308C9.96762 11.2797 9.91298 11.3013 9.93617 11.358C9.97266 11.4468 10.0245 11.4605 9.92286 11.5705C9.92431 11.7104 9.92687 11.8501 9.92947 11.9897L9.55226 11.728C10.016 11.545 10.4978 11.4012 10.9933 11.3433C11.1699 11.2806 11.3351 11.2218 11.5271 11.1867C11.5838 11.1766 11.6025 11.244 11.6904 11.2114C11.7097 11.204 11.8489 11.1161 11.8816 11.2543C11.9207 11.2389 11.9461 11.2366 11.9801 11.2266C11.9524 11.208 11.9237 11.1894 11.8968 11.1707C12.0449 11.1812 12.1614 11.1253 12.2917 11.0971C12.3876 11.0769 12.321 11.1391 12.3798 11.1314C12.4384 11.1241 12.4656 11.11 12.5396 11.1813C12.5631 11.1468 12.5837 11.1366 12.6071 11.1366C12.6404 11.1366 12.6793 11.1573 12.7417 11.1595C12.753 11.1599 12.8198 11.1288 12.8751 11.137C12.9147 11.1429 12.9246 11.195 12.9877 11.1896C12.9978 11.1886 13.1344 11.1313 13.1776 11.1285C13.2448 11.1234 13.3445 11.1982 13.357 11.2002C13.5401 11.2282 13.6198 11.172 13.7364 11.2956C13.7708 11.2353 13.8856 11.2131 13.9729 11.2333C14.0844 11.2579 14.2796 11.428 14.3366 11.2988C14.4519 11.3855 14.4454 11.3448 14.5963 11.378C14.7346 11.4068 15.0782 11.556 15.1875 11.584C15.2978 11.6108 15.2685 11.5209 15.3149 11.5249C15.3909 11.5317 15.335 11.5732 15.3834 11.5884C15.488 11.6214 15.5832 11.648 15.6835 11.6703L15.2232 11.9897C15.2188 11.9596 15.2138 11.9292 15.2079 11.8981C15.2478 11.891 15.2879 11.8834 15.3278 11.8761C15.3145 11.8692 15.3012 11.8624 15.2879 11.8556C15.2883 11.8272 15.2875 11.7954 15.2887 11.7692C15.1135 11.9908 15.3017 11.5551 15.3061 11.4242C15.3097 11.3139 15.2267 11.1303 15.2087 11.0092C15.2043 10.9798 15.2474 11 15.2464 10.9939C15.2341 10.923 15.2047 10.9122 15.2087 10.8169C15.2109 10.7665 15.2649 10.715 15.266 10.6659C15.2732 10.3052 15.219 9.95709 15.2131 9.59877C15.2121 9.53783 15.278 9.48526 15.2794 9.43403C15.2815 9.36076 15.2275 9.31452 15.2267 9.24571C15.2258 9.17715 15.2904 9.07833 15.2805 9.03183C15.2708 8.98533 15.2083 9.0649 15.2254 8.97978C15.2333 8.94069 15.2799 9.00974 15.2813 8.96143C15.2857 8.81065 15.2281 8.59787 15.2839 8.43736C15.27 8.44445 15.2575 8.45413 15.2442 8.4628C15.2496 8.29179 15.2831 8.1407 15.2879 7.96417C15.2897 7.90244 15.2489 7.7911 15.2491 7.73043C15.2493 7.66975 15.2936 7.64215 15.2948 7.59357C15.2954 7.5736 15.2557 7.58141 15.2565 7.56801C15.267 7.40044 15.3377 7.3085 15.3297 7.13305C15.3002 6.49022 15.2748 5.82736 15.2482 5.17455C15.2471 5.1483 15.1954 5.13063 15.1877 5.0923C15.1759 5.03324 15.2216 5.03035 15.2232 5.02247C15.2333 4.971 15.1909 4.99199 15.1909 4.92291C15.1909 4.77081 15.2285 4.52544 15.2252 4.37386C15.2178 4.02447 15.1774 3.73078 15.1571 3.38822C15.1555 3.36353 15.2167 3.38027 15.2176 3.33745C15.2223 3.11745 15.1923 3.02387 15.1822 2.84379L15.397 3.18726C15.3385 3.16304 15.271 3.13217 15.1849 3.0892C14.8713 2.924 14.24 2.67928 13.8271 2.5992C13.8271 2.59906 13.8272 2.59892 13.8272 2.59878C13.6765 2.68484 13.5193 2.63119 13.3886 2.52912C14.1298 2.37597 14.8278 2.6391 15.4978 2.9801L15.4126 2.84379C15.4106 2.96078 15.4097 3.07912 15.4112 3.19909C15.4227 4.16161 15.6257 5.1877 15.5981 6.16309C15.5955 6.25477 15.531 6.29161 15.5445 6.36884C15.5468 6.3819 15.5965 6.34809 15.6015 6.38824C15.6693 6.9399 15.5559 7.5281 15.5874 8.06978C15.5958 8.21583 15.6513 8.23874 15.6656 8.36719C15.6394 8.34461 15.612 8.32984 15.5856 8.31015C15.5037 8.89649 15.5402 9.48368 15.5285 10.0777C15.5279 10.1044 15.4737 10.1079 15.4717 10.136C15.4674 10.1922 15.5271 10.246 15.5291 10.2951C15.5318 10.3592 15.4886 10.3703 15.4914 10.4294C15.4929 10.4583 15.5344 10.4497 15.5273 10.5124C15.5267 10.5176 15.4832 10.5211 15.4888 10.5628C15.5043 10.6771 15.5408 10.9106 15.5517 11.0052C15.5656 11.126 15.5001 11.223 15.4958 11.2687C15.4843 11.3921 15.5515 11.3896 15.5515 11.4941C15.5516 11.6606 15.5478 11.8255 15.5419 11.9897L15.5719 11.9689C15.0451 11.7507 14.5064 11.56 13.9153 11.4684C13.8671 11.4606 13.6806 11.5098 13.5932 11.4971C13.564 11.4921 13.4112 11.4563 13.388 11.4529C13.2943 11.438 13.2158 11.3871 13.1638 11.3742C13.0627 11.3489 12.9456 11.4146 12.8905 11.4199C12.8077 11.4275 12.6711 11.4204 12.6071 11.4178C12.5959 11.4173 12.587 11.4169 12.581 11.4166C12.4828 11.4128 12.5141 11.3253 12.4434 11.3468C12.4226 11.3534 12.4457 11.4196 12.3725 11.4215C12.3111 11.423 12.2844 11.3737 12.2417 11.3663C12.1989 11.3591 12.1259 11.441 12.0999 11.4407C11.9631 11.4383 11.8984 11.3921 11.7488 11.4041C11.6235 11.4092 11.0609 11.5311 11.0192 11.5625C10.8267 11.6833 11.1659 11.5802 11.1863 11.5811C11.295 11.5791 11.2837 11.6128 11.3808 11.5375C11.4992 11.7056 11.7975 11.3812 11.9033 11.5945C11.9786 11.4413 12.0597 11.5096 12.1533 11.534C12.2829 11.5682 12.1815 11.4876 12.2751 11.483C12.3123 11.4812 12.4209 11.5445 12.4756 11.5346C12.5251 11.5255 12.5486 11.4831 12.6071 11.4727C12.6136 11.4715 12.6206 11.4707 12.6281 11.4705C12.761 11.4656 12.8682 11.4924 12.9761 11.5582C12.9975 11.5321 13.0178 11.506 13.0394 11.4801C13.1149 11.513 13.1899 11.5468 13.2637 11.5816C13.2534 11.5571 13.243 11.5324 13.2324 11.508C13.2551 11.5062 13.2779 11.5048 13.3007 11.5034C13.3724 11.5449 13.4402 11.5844 13.5118 11.6291C13.7336 11.5173 13.6606 11.6282 13.7716 11.661C13.8825 11.6947 13.9606 11.6274 14.049 11.6422C14.1677 11.6626 14.2241 11.6634 14.342 11.6937C14.4104 11.7113 14.5099 11.8123 14.4407 11.6729C14.6583 11.7103 14.9617 11.7578 15.1356 11.8648C15.1869 11.896 15.1014 11.9089 15.1095 11.9165C15.1496 11.9525 15.2079 11.9065 15.2536 11.9309C15.328 11.9704 15.4622 12.067 15.5218 12.1031L15.6796 12.1678L15.6852 11.9897C15.6855 11.9881 15.6858 11.9866 15.686 11.9851C15.7023 11.8887 15.6225 11.7372 15.6166 11.7217C15.5842 11.635 15.6505 11.6118 15.6459 11.584C15.6193 11.4256 15.5914 11.3906 15.7314 11.3407C15.6709 11.2997 15.5691 11.1279 15.6709 11.0864C15.5789 11.0853 15.5944 10.9427 15.5714 10.855C15.5981 10.8387 15.6245 10.8221 15.6513 10.8058C15.4868 10.6227 15.6063 10.2581 15.6259 10.0172C15.6263 10.0112 15.5574 10.0004 15.5729 9.96415C15.5742 9.96185 15.6052 9.96558 15.6092 9.94126C15.6221 9.86113 15.6994 9.55542 15.7001 9.52024C15.7027 9.39073 15.6513 9.36809 15.6465 9.28928C15.64 9.18553 15.6864 9.17053 15.6798 9.0718C15.6768 9.02557 15.6157 8.98351 15.6243 8.91078C15.6293 8.86771 15.6773 8.86345 15.6812 8.82934C15.6951 8.70797 15.6648 8.61884 15.7273 8.51113C15.5747 8.48302 15.6872 8.43155 15.6987 8.37822C15.7457 8.16177 15.6812 7.89199 15.6951 7.70626C15.7389 7.12676 15.833 6.6129 15.8542 6.0468C15.8576 5.95485 15.781 5.9327 15.7858 5.83629C15.7881 5.79295 15.8435 5.74827 15.8443 5.67736C15.8451 5.62037 15.8169 5.53871 15.8171 5.46754C15.8171 5.44863 15.8691 5.44695 15.8696 5.4191C15.8726 5.20791 15.8356 5.00167 15.8102 4.78838C15.8008 4.70932 15.8697 4.66043 15.7497 4.67383C15.7792 4.64362 15.8048 4.61425 15.8338 4.58588C15.7582 4.47712 15.837 4.3883 15.8177 4.24119C15.8154 4.22533 15.7324 4.11425 15.7923 4.05124C15.7495 4.04678 15.7132 4.05656 15.6745 4.05473C15.6582 3.99247 15.7076 3.89683 15.7126 3.85479C15.7177 3.81281 15.6621 3.7847 15.6616 3.77207C15.6602 3.72399 15.7332 3.7352 15.7344 3.73152C15.8044 3.50747 15.7655 3.53106 15.656 3.39577C15.6284 3.36188 15.7086 3.13187 15.6221 3.08535C15.6574 3.08326 15.6884 3.09607 15.7221 3.09976C15.7312 3.03067 15.7405 2.96104 15.7496 2.89168C15.7157 2.90639 15.6818 2.92406 15.6477 2.93746C15.6544 2.90508 15.6554 2.87394 15.653 2.84379L15.6548 2.79118L15.603 2.76388C15.5066 2.72604 15.4042 2.73086 15.3229 2.69319C15.2625 2.66527 15.2991 2.59969 15.2564 2.5994C15.2481 2.59941 15.2405 2.65105 15.218 2.64606C15.0346 2.60628 14.9785 2.52797 14.8053 2.45745C14.7236 2.42474 14.6242 2.48888 14.5224 2.39573C14.5137 2.38708 14.4161 2.2742 14.3132 2.36855C14.2993 2.3268 14.2834 2.30276 14.2734 2.26824C14.0827 2.40072 14.1662 2.24417 13.9681 2.16149C13.866 2.11687 13.4991 2.08955 13.3803 2.09744C13.3093 2.1009 13.3037 2.16921 13.2911 2.17061C13.2163 2.17902 13.2222 2.11319 13.1527 2.11832C13.083 2.12359 12.9925 2.19278 12.9234 2.18275C12.8703 2.17513 12.9159 2.09462 12.8353 2.12031C12.8186 2.12601 12.8631 2.19703 12.7807 2.1673C12.7681 2.16241 12.6352 2.08502 12.6071 2.06905C12.6778 2.02446 12.8878 1.97257 12.9679 1.95981C13.6639 1.83159 14.7742 1.95411 15.7736 2.41333L16.0522 2.56037L16.0429 2.84379C16.0749 3.8282 16.0661 4.81745 16.0472 5.50693C16.0437 5.63747 15.9719 5.72284 15.9657 5.80794C15.9594 5.89306 16.0252 5.82109 16.0198 5.89833C16.0141 5.97556 15.9677 6.03183 15.9637 6.10407C15.9362 6.59109 15.9072 7.08179 15.8945 7.56488C15.8913 7.69018 15.9447 7.79033 15.9447 7.90434C15.9447 7.94871 15.8758 7.95008 15.8764 7.9816C15.8818 8.32125 15.9482 8.63546 15.9401 8.97328C15.9367 9.11355 15.8786 9.26511 15.8732 9.40406C15.8685 9.51858 15.9082 9.63731 15.909 9.74028C15.9096 9.79617 15.8571 9.82565 15.853 9.84588C15.8393 9.91628 15.9034 9.89168 15.9034 9.92767C15.9032 10.0269 15.8258 10.0763 15.8318 10.1693C15.8342 10.2058 15.8836 10.2011 15.8913 10.2541C15.901 10.3214 15.8554 10.2965 15.8538 10.3445C15.8536 10.3474 15.8889 10.338 15.8903 10.3634C15.8996 10.5274 15.9274 10.732 15.925 10.8902C15.9201 11.2172 15.8522 11.5401 15.8389 11.8448C15.8356 11.9218 15.8816 11.9014 15.8838 11.9258C15.886 11.9498 15.8854 11.9707 15.8833 11.9897L15.8685 12.4591L15.4525 12.2886C15.3885 12.256 15.3567 12.2107 15.2621 12.1946C15.2421 12.1911 15.1469 12.2259 15.0801 12.1876C15.0439 12.1669 15.0114 12.1152 14.9805 12.0961C14.9496 12.0771 14.9275 12.1315 14.8874 12.1198C14.8142 12.0988 14.8467 12.0656 14.7392 12.0436C14.6957 12.0346 14.5402 12.0512 14.4316 12.0221C14.2543 11.9738 14.0388 11.8798 13.8221 11.8467C13.7478 11.8351 13.6446 11.8813 13.5301 11.8688C13.3901 11.8526 13.1318 11.8179 12.9869 11.8113C12.913 11.8075 12.9099 11.7447 12.9011 11.7417C12.8446 11.7223 12.8654 11.7933 12.8275 11.7895C12.7754 11.7842 12.7274 11.7315 12.6795 11.7277C12.649 11.7252 12.644 11.7771 12.6374 11.7774C12.6273 11.7781 12.6172 11.7788 12.6071 11.7794C12.3765 11.7944 12.17 11.7986 11.9401 11.8227C11.2019 11.9005 10.4766 12.0925 9.7907 12.3662L9.23038 12.5557L9.24817 11.9897C9.23619 11.4132 9.23144 10.8372 9.24425 10.2641C9.24667 10.1514 9.31203 10.1472 9.30175 10.0481C9.29167 9.9491 9.15051 9.85342 9.30639 9.77199C9.27493 9.76936 9.2525 9.76962 9.22387 9.76699C9.26822 9.56235 9.22231 9.3577 9.21666 9.15753C9.21243 9.00938 9.21745 8.87801 9.22087 8.74115C9.22411 8.61985 9.27892 8.63032 9.20739 8.5253C9.25215 8.00331 9.24125 7.47572 9.31567 6.9582C9.1985 6.83683 9.27232 6.72049 9.28966 6.55262C9.29186 6.5319 9.24911 6.55413 9.25274 6.49268C9.2572 6.41549 9.32251 6.37554 9.3189 6.24557C9.31789 6.21116 9.24548 5.95627 9.28258 5.86196C9.31968 5.76765 9.34146 5.63104 9.37695 5.53306C9.34892 5.54698 9.32211 5.56462 9.29449 5.58011C9.28965 5.53125 9.28498 5.48213 9.28014 5.43327C9.31382 5.42617 9.34752 5.41907 9.3814 5.41224C9.34934 5.38387 9.31767 5.35548 9.28521 5.32685C9.45821 5.26512 9.40178 5.32841 9.35803 5.19104C9.33625 5.12221 9.36647 5.06757 9.34893 4.99691C9.34248 4.97145 9.29154 4.95516 9.28502 4.92709C9.2693 4.85827 9.33941 4.89838 9.33904 4.85587C9.33844 4.81305 9.26143 4.75158 9.29571 4.67487C9.43301 4.75495 9.38822 4.52349 9.28155 4.51245C9.28135 4.4849 9.28578 4.4618 9.28277 4.43136C9.55218 4.45947 9.36099 4.31518 9.32409 4.25791C9.28724 4.20068 9.35963 4.20299 9.3568 4.1896C9.34894 4.15101 9.31888 4.17911 9.31786 4.15207C9.31181 3.97291 9.35601 3.80422 9.36004 3.62742C9.36061 3.60199 9.31971 3.62455 9.32372 3.59489C9.32776 3.56521 9.36848 3.53676 9.36565 3.49289C9.36494 3.48112 9.329 3.47742 9.32897 3.45908C9.32985 3.25075 9.33924 3.04811 9.3484 2.84379L9.35492 2.64541L9.51807 2.57255C9.68364 2.50062 9.85251 2.4344 10.0273 2.36784C10.0617 2.35478 10.0658 2.28446 10.1343 2.2613C10.2028 2.23808 10.3246 2.2562 10.41 2.23298C10.4327 2.22682 10.4224 2.1742 10.4528 2.16595C10.5563 2.13811 10.6566 2.1536 10.7646 2.1315C10.9468 2.09424 11.1304 2.0189 11.3222 2.01525C11.3584 2.01452 11.3608 2.05912 11.4133 2.06259C11.5037 2.06898 11.4604 2.01086 11.4768 1.99932C11.5306 1.96223 11.5619 2.04447 11.6146 2.01445C11.6227 2.00983 11.6032 1.96109 11.6108 1.95919C11.7303 1.93367 11.7507 2.05152 11.8705 1.97375C11.9904 2.03042 11.8047 2.07322 11.7905 2.11228C11.7553 2.20589 11.8888 2.29456 11.9617 2.32139C12.0249 2.34429 12.0195 2.28951 12.0437 2.28736C12.1716 2.27564 12.3631 2.25594 12.4613 2.28056C12.5206 2.29504 12.4149 2.32035 12.4455 2.33783C12.4755 2.35524 12.4941 2.31338 12.5251 2.35833C12.5564 2.40323 12.6173 2.53669 12.6057 2.60044ZM9.79096 10.7524C9.57318 10.5522 9.59593 10.0214 9.6167 9.73632C9.63404 9.49989 9.80184 9.29606 9.55865 9.34492C9.55704 9.6005 9.58143 9.80724 9.57397 10.0775C9.57317 10.1056 9.5506 10.2733 9.54657 10.3316C9.54434 10.3644 9.50417 10.3655 9.50457 10.4101C9.50478 10.4199 9.55726 10.4737 9.55585 10.4934C9.5512 10.5609 9.47063 10.7617 9.47296 10.7897C9.47981 10.8674 9.54225 10.8376 9.55359 10.8711C9.59109 10.9838 9.49732 10.9962 9.52777 11.1079C9.53321 11.1279 9.61494 11.1941 9.60425 11.2768C9.5998 11.3104 9.55761 11.3677 9.55963 11.3935C9.57052 11.5337 9.6264 11.6903 9.61713 11.8188C9.60945 11.9241 9.54637 11.8958 9.5379 11.9515C9.53608 11.9638 9.53824 11.9767 9.54277 11.9897L9.53802 12.1408L9.68759 12.0902C9.7243 12.0595 9.75308 12.0011 9.77982 11.9881C9.83479 11.9613 9.91798 11.9769 9.93546 11.9704C10.281 11.8417 10.5877 11.7103 10.937 11.6218C10.692 11.6417 10.4476 11.6747 10.2042 11.715C10.0897 11.8172 10.1386 11.7386 10.0449 11.7463C9.97062 11.7529 9.98803 11.8634 9.8948 11.8818C9.89488 11.8817 9.89495 11.8817 9.89503 11.8817C9.84712 11.891 9.72105 11.8535 9.63405 11.9202C9.63294 11.9211 9.63373 11.9292 9.63171 11.9406L9.70244 11.9897C9.68505 11.9795 9.66138 11.9578 9.6601 11.9086C9.65566 11.7344 9.6262 11.4676 9.63849 11.2716C9.64212 11.2141 9.70244 11.2258 9.7099 11.1577C9.7153 11.1081 9.65952 11.0506 9.672 10.9729C9.68793 10.8754 9.78387 10.8287 9.65057 10.7617C9.69817 10.7562 9.74458 10.759 9.79096 10.7524ZM9.67499 5.36914C9.68026 5.35545 9.82904 5.17211 9.67017 5.22647C9.6012 5.47289 9.63546 5.7393 9.59674 5.99858C9.75383 5.91005 9.69192 5.76028 9.68042 5.57849C9.68042 5.57841 9.68042 5.57833 9.68042 5.57825C9.67989 5.56967 9.72094 5.60555 9.7135 5.55676C9.70987 5.53312 9.64696 5.44243 9.67499 5.36914Z" fill="black"/>
</svg>